<?xml version="1.0" standalone="no"?>
<!DOCTYPE svg PUBLIC "-//W3C//DTD SVG 1.1//EN" "http://www.w3.org/Graphics/SVG/1.1/DTD/svg11.dtd">
<svg style="margin: auto;" color-interpolation-filters="sRGB" preserveAspectRatio="xMidYMid meet" viewBox="0 0 180.000000 50.000000" height="100%" width="100%" xmlns:xlink="http://www.w3.org/1999/xlink" xmlns="http://www.w3.org/2000/svg" version="1.0" data-v-2cb57da0=""><rect data-v-2cb57da0="" x="0" y="0" width="100%" height="100%" fill="#feffff" fill-opacity="0" class="background"></rect> <rect data-v-2cb57da0="" x="0" y="0" width="100%" height="100%" fill="url(#watermark)" fill-opacity="1" class="watermarklayer"></rect> <g data-v-2cb57da0="" fill="#333" class="iconlinesvg-g iconlinesvg" transform="translate(8.35540771484375,6.25225639343262)"><g class="tp-name" opacity="1" transform="matrix(1,0,0,1,0,0)"><g transform="translate(0, 0)"><g><g class="imagesvg"><g><rect fill="#333" fill-opacity="0" stroke-width="2" x="0" y="0" width="31.493414228113824" height="41.495486228673215" class="image-rect"></rect> <svg x="0" y="0" width="31.493414228113824" height="41.495486228673215" filtersec="colorsb1557471084" class="image-svg-svg primary" style="overflow: visible;"><svg xmlns="http://www.w3.org/2000/svg" viewBox="0 0 62.48003387451172 82.32303619384766"><path fill="#fdda00" d="M15.68 65.85h22.46v16.47H15.68zM22.75 31.28h15.68v16.46H22.75z"></path><path d="M43.59 0l15.68 16.46H62v-.11L46.39 0zm3.8 0L62 15.29v-2.94L50.19 0zm3.81 0L62 11.29V8.35L54 0zM55 0l7 7.29V4.35L57.81 0zm3.81 0L62 3.29V0zM39.89 0l15.68 16.46h2.8L42.69 0zm-3.81 0l15.68 16.46h2.8L38.88 0zm-3.81 0L48 16.46h2.8L35.07 0zm-3.8 0l15.68 16.46H47L31.27 0zm-3.81 0l15.68 16.46h2.8L27.46 0zm-1.91 0h-.89a3.48 3.48 0 0 0-.9.12l15.57 16.34h2.8L23.65 0zm-2.68.12l-1.18.23-1.18.24 15.12 15.87h2.8zm-3.14.7a6.64 6.64 0 0 1-1.06.36 5.78 5.78 0 0 0-1.07.35L29 16.46h2.8zM14 1.76a12.41 12.41 0 0 1-1.91.94l13.13 13.76H28zm7.5 14.82a5 5 0 0 1 1.23-.12h1.46L11.55 3.17a5.27 5.27 0 0 0-1 .53 5.18 5.18 0 0 1-.84.53zm1.23 18.23L2.37 13.41a16.2 16.2 0 0 0-.9 2l21.28 22.34zm0 4L1.25 16.23a7.84 7.84 0 0 0-.34 1.12 6.85 6.85 0 0 1-.33 1.11l22.17 23.29zm0 4L.47 19.28a11 11 0 0 0-.34 2.59l22.62 23.88zM0 23.87v1.06a4.31 4.31 0 0 0 .11.94l20.74 21.76a3.47 3.47 0 0 0 .9.11h1v-.94L0 22.93zm22.73 7.41a6.23 6.23 0 0 1-3.13-.82l3.13 3.29zm-3.9-13.52a3.53 3.53 0 0 1 .9-.53l1-.41L9.2 4.7a3.08 3.08 0 0 0-.78.59 8 8 0 0 1-.79.71zm-2.68 28.93l1.79.47a14.14 14.14 0 0 0 1.79.35L.24 27.05a17.68 17.68 0 0 0 .34 1.88L1 30.81zm.78-26.93a7 7 0 0 1 1.34-1.65L7.19 6.47l-.73.76a5.36 5.36 0 0 0-.62.77zm-1.12 2.82a5.82 5.82 0 0 1 .34-1.12c.15-.35.29-.72.44-1.12L5.28 8.58a7.32 7.32 0 0 1-.56.77 4.52 4.52 0 0 0-.56.88zm-.11.82l-12-12.58c-.15.31-.31.63-.5.94s-.35.63-.5.94l13.78 14.46a7.09 7.09 0 0 1-.78-3.29zM1.59 32.46a23.19 23.19 0 0 0 5.09 8.29 21.94 21.94 0 0 0 7.9 5.35z" fill="#5dd6c5"></path><path fill="#ec0186" d="M15.68 71.5v2.12l-7.39-7.77h2.01l5.38 5.65zM15.68 69.62l-3.59-3.77h2.02l1.57 1.65v2.12zM15.68 77.5L4.59 65.85h1.9l9.19 9.65v2zM2.8 65.85l12.88 13.53v2.12L.78 65.85H2.8zM0 78.91l3.25 3.41H1.23L0 81.03v-2.12zM0 74.91l7.05 7.41H5.04L0 77.03v-2.12zM0 66.91l14.67 15.41h-2.02L0 69.03v-2.12zM0 70.91l10.86 11.41H8.85L0 73.03v-2.12zM38.14 34.93l24.08 25.28a5.07 5.07 0 0 0 .12-1 5 5 0 0 1 .11-1l-24.31-25.4zM38.14 38.81L61.55 63.5a11.13 11.13 0 0 0 .45-1.76L38.14 36.69zM38.14 42.81l22.52 23.63a1.87 1.87 0 0 0 .27-.76 2.17 2.17 0 0 1 .28-.77L38.14 40.69zM38.14 44.69v2.11l.9.94a7.07 7.07 0 0 1 2.91.95zM38.14 66.68L49.9 79.14c.23-.15.45-.29.68-.41a7.12 7.12 0 0 0 .67-.41l-12-12.58a3.75 3.75 0 0 1-1.12.11zM38.14 70.68l9.3 9.76 1.34-.71-10.64-11.17v2.12zM38.14 74.68l6.39 6.7c.59-.16 1.12-.31 1.56-.47l-8-8.35zM38.14 78.67l3.25 3.41c.3-.07.58-.13.84-.17l1-.18-5-5.17zM38.14 82.32a8.62 8.62 0 0 0 1.68-.12l-1.68-1.64zM40.61 31.4a9.08 9.08 0 0 1-1.07-.06 8.91 8.91 0 0 0-1.06-.06l24 25.17a10 10 0 0 0-.06-1.12 9.93 9.93 0 0 1 0-1.12zM52.25 77.5a1.9 1.9 0 0 1 .57-.41 2.41 2.41 0 0 0 .56-.42L42.17 64.8a4.39 4.39 0 0 1-1.45.59zM45.42 32.46l-2.68-.71L62 52a10.32 10.32 0 0 1-.34-1.41 9 9 0 0 0-.33-1.41zM54.38 75.73a7.22 7.22 0 0 0 1-.94L44.3 63.15a5 5 0 0 1-1.12.94zM56.29 73.85c.15-.23.29-.45.45-.65a4.62 4.62 0 0 1 .44-.52L45.87 60.8a5.3 5.3 0 0 1-.78 1.29zM59.42 69.15l.67-1.41L45.87 52.8a8.11 8.11 0 0 1 .9 3.06zM46.43 59.51L58 71.62c.15-.24.28-.45.39-.65l.39-.65-12-12.58zM54.05 37.51a30.36 30.36 0 0 0-5.71-3.88L60.21 46.1a32 32 0 0 0-3.7-6z"></path></svg></svg> <!----></g></g></g></g><g transform="translate(35, 3.457996570557807)"><g data-gra="path-name" fill="#333" transform="scale(1)"><path d="M9.38-15.35L24.00-15.35L24.00-9.95L9.38-9.95Q9.59-7.47 10.99-6.43Q12.39-5.39 15.55-5.39L15.55-5.39L24.00-5.39L24.00 0L14.78 0Q11.77 0 9.88-0.54Q7.98-1.09 6.32-2.33L6.32-2.33Q1.71-5.91 1.71-12.96L1.71-12.96Q1.71-17.52 4.15-20.94L4.15-20.94Q5.81-23.28 8.14-24.26Q10.47-25.25 14.26-25.25L14.26-25.25L24.00-25.25L24.00-19.86L14.78-19.86Q11.92-19.86 10.78-18.90Q9.64-17.94 9.38-15.35L9.38-15.35Z" transform="translate(-1.7108294930875576, 34.5794930875576)"></path></g></g><g transform="translate(61, 3.457996570557807)"><g data-gra="path-name" fill="#333" transform="scale(1)"><path d="M12.29-15.35L20.79-15.35Q20.79-17.99 19.73-18.92Q18.66-19.86 15.50-19.86L15.50-19.86L3.78-19.86L3.78-25.25L15.50-25.25Q18.66-25.25 19.86-25.12Q21.05-24.99 22.29-24.63L22.29-24.63Q28.05-22.45 27.74-14.21L27.74-14.21L27.74 0L13.12 0Q9.18 0 7.67-0.23Q6.17-0.47 5.03-1.19L5.03-1.19Q1.97-3.27 1.97-7.47L1.97-7.47Q1.97-10.01 3.19-12.00Q4.41-14.00 6.43-14.72L6.43-14.72Q8.19-15.35 12.29-15.35L12.29-15.35ZM20.79-5.39L20.79-9.95L12.81-9.95L11.61-9.95Q10.42-9.95 9.72-9.33Q9.02-8.71 9.02-7.62L9.02-7.62Q9.02-6.43 9.88-5.91Q10.73-5.39 12.81-5.39L12.81-5.39L20.79-5.39Z" transform="translate(-1.970046082949309, 34.5794930875576)"></path></g></g><g transform="translate(90, 3.457996570557807)"><g data-gra="path-name" fill="#333" transform="scale(1)"><path d="M10.42-20.43L31.05-20.43L31.05-14.26L10.42-14.26L10.42 0L3.11 0L3.11-18.04Q3.16-25.82 4.56-28.25L4.56-28.25Q6.32-31.68 9.67-33.13Q13.01-34.58 19.08-34.58L19.08-34.58L31.05-34.58L31.05-28.41L20.01-28.41Q14.88-28.31 13.43-27.58L13.43-27.58Q10.52-26.39 10.42-22.29L10.42-22.29L10.42-20.43Z" transform="translate(-3.110599078341014, 34.5794930875576)"></path></g></g><g transform="translate(121, 3.457996570557807)"><g data-gra="path-name" fill="#333" transform="scale(1)"><path d="M3.37 0L3.37-25.25L10.32-25.25L10.32 0L3.37 0ZM10.32-27.84L3.37-27.84L3.37-34.58L10.32-34.58L10.32-27.84Z" transform="translate(-3.3698156682027647, 34.5794930875576)"></path></g></g><g transform="translate(131, 3.457996570557807)"><g data-gra="path-name" fill="#333" transform="scale(1)"><path d="M10.32-34.58L10.32 0L3.37 0L3.37-34.58L10.32-34.58Z" transform="translate(-3.3698156682027647, 34.5794930875576)"></path></g></g><g transform="translate(141, 3.457996570557807)"><g data-gra="path-name" fill="#333" transform="scale(1)"><path d="M9.38-15.35L24.00-15.35L24.00-9.95L9.38-9.95Q9.59-7.47 10.99-6.43Q12.39-5.39 15.55-5.39L15.55-5.39L24.00-5.39L24.00 0L14.78 0Q11.77 0 9.88-0.54Q7.98-1.09 6.32-2.33L6.32-2.33Q1.71-5.91 1.71-12.96L1.71-12.96Q1.71-17.52 4.15-20.94L4.15-20.94Q5.81-23.28 8.14-24.26Q10.47-25.25 14.26-25.25L14.26-25.25L24.00-25.25L24.00-19.86L14.78-19.86Q11.92-19.86 10.78-18.90Q9.64-17.94 9.38-15.35L9.38-15.35Z" transform="translate(-1.7108294930875576, 34.5794930875576)"></path></g></g></g> <!----></g><defs v-gra="od"></defs></svg>